<?xml version="1.0" encoding="UTF-8"?>
<svg width="296px" height="296px" viewBox="0 0 296 296" version="1.1" xmlns="http://www.w3.org/2000/svg" xmlns:xlink="http://www.w3.org/1999/xlink">
    <!-- Generator: Sketch 59.1 (86144) - https://sketch.com -->
    <title>Group 2</title>
    <desc>Created with Sketch.</desc>
    <defs>
        <path d="M53.5,61.2125436 C63.7172679,61.2125436 72,69.748773 72,80.2787456 C72,86.5239942 69.0864761,92.067926 64.5838242,95.5456114 L64.5838242,95.5456114 L74,119.414634 L73.9294881,119.414653 C82.2096021,121.872451 86.5980298,123.251979 87.0947711,123.553237 C88.1781413,124.210267 89.2268782,124.369674 90.9791501,127.388688 C92.731422,130.407702 92.4536231,130.713465 92.9779672,133.148731 C93.1263874,133.838054 93.3933891,142.93696 93.7786582,160.449188 C95.8853645,160.57342 97.7109346,160.72056 98.8698328,160.899091 C102.644435,161.480579 104,161.687797 104,162.702013 C104,163.378157 101.750864,165.027783 97.2525919,167.650891 C96.2064531,168.380605 95.1150018,169.075922 93.9781593,169.733965 C94.119649,176.489305 94.2743148,184.179075 94.4429489,192.807465 C97.9600638,193.52015 97.4988116,193.440791 99.1754033,193.431364 L99.1754033,193.431364 L99.4507056,193.430582 C101.605061,193.430582 106.60184,192.755548 107.778489,193.003714 C108.562922,193.169158 108.970092,193.610645 109,194.328173 C107.060842,200.978132 105.963503,204.560621 105.707981,205.07564 C105.324698,205.84817 104.993614,207.013717 103.84422,207.620905 C102.694826,208.228094 102.350916,208.724739 100.454637,208.724739 C99.1330573,208.724739 97.0349993,208.562528 94.7313383,207.89627 C94.8270773,212.964408 94.9264483,218.290128 95.0294621,223.87664 C96.8919702,223.377092 98.6346143,222.93344 99.3270488,222.962365 C100.236188,223.000342 100.780857,223.435121 100.961055,224.266701 C100.159044,232.411805 99.6682102,236.810181 99.4885524,237.461828 C99.2190657,238.439299 99.088294,239.865165 97.9301324,240.801156 C96.9846943,241.56523 96.6230922,242.137177 95.3697069,242.522178 C95.5681372,253.509074 95.7782349,265.323401 96,277.965157 L96,277.965157 L92.1344315,277.965157 L91.3782853,243.0688 C89.3217397,243.143946 86.7702182,242.968956 84.149477,242.163427 C83.1489566,241.8559 82.0860855,241.428238 80.9994913,240.930802 L80.9994913,240.930802 L81,253.170544 L85.1147643,249.445382 L87.5405977,252.166881 L81,258.107544 L80.9998689,271.454712 C81.2080898,272.289954 81.4180842,273.123935 81.6162317,273.912162 C74.1653398,270.326174 67.0707037,266.113513 60.4001835,261.342376 L60.6872911,261.101166 C67.2547804,255.635079 71.7766554,253.285028 73.3166157,253.464223 C73.9184587,253.534255 75.0645425,253.608422 76.0607135,254.127094 C76.4483813,254.328939 76.9844078,254.740886 77.6687931,255.362936 L77.6687931,255.362936 L77.9412219,247.627472 L77.9412826,239.404483 C75.5163893,238.11484 73.1508499,236.712899 71.2614857,235.742099 C64.6279507,232.333634 60.7895331,230.276359 60.5570766,229.833647 C60.0223943,228.815346 62.0756738,227.527002 64.8299516,226.58666 C67.5842294,225.646317 68.8843235,225.44469 72.7318567,225.186189 C74.8497386,225.043897 76.2270059,225.050751 77.9408735,225.114991 L77.9408735,225.114991 L77.942,214.829544 L68.3934029,215.687082 C68.3934029,216.397436 67.9869488,216.752613 67.1740406,216.752613 L67.1740406,216.752613 L55.8494179,216.753088 C55.8092457,216.857702 55.7610356,216.960901 55.7047876,217.062684 C54.7179567,218.848393 52.3796759,220.399428 48.5870301,223.392248 C44.7943843,226.385067 45.098176,225.921028 42.8523938,226.498647 C41.3552057,226.883726 39.8785391,226.883726 38.4223941,226.498647 C37.1722387,226.265151 36.0091211,225.923334 34.9330414,225.473195 C33.3189218,224.797986 33.3524578,224.948328 32.5438368,224.039564 C31.7352158,223.130801 31.7053355,222.87421 31.5070733,221.622942 C31.4451691,221.232254 31.3671397,220.438071 31.2729853,219.240395 L31.2729853,219.240395 L27.9543576,219.65228 C27.9655579,222.790168 27.9773125,226.012484 27.9896214,229.319227 C26.8245748,227.736962 25.692945,226.127659 24.5938215,224.494514 C24.4910035,209.837663 24.3991516,196.913049 24.3215674,185.718324 C24.220268,185.766916 24.1186613,185.815275 24.0167474,185.8634 L24.0167474,185.8634 L24.0153659,221.860388 L24.0424629,223.669158 C23.0831268,222.22233 22.149177,220.757093 21.241252,219.274089 L21,188.196738 L20.9994589,187.073726 C17.0760819,188.212013 13.3206558,187.501259 10.5720319,186.385648 C9.64570294,186.00967 8.58561138,183.848246 7.39175719,179.901376 L7.39175719,179.901376 L6.58333175,179.14775 L4.40429613,179.149169 C4.20523299,178.352759 4.01277964,177.553718 3.82699798,176.752107 L6.58333175,176.750793 L6.61021172,176.473588 C6.75249377,175.120766 7.01300892,174.266027 7.39175719,173.909371 C7.9977544,173.338721 9.05198715,173.700836 13.6501322,173.909371 C15.4244433,173.989839 18.1292009,174.076255 20.999014,174.185458 L20.999014,174.185458 L20.9984807,149.590376 C16.3328269,146.680154 14,144.845205 14,144.085526 C14,142.926422 15.454753,142.689602 19.5055453,142.025044 C20.5426018,141.854909 22.0771177,141.709718 23.8698465,141.583715 C23.9239031,141.523742 23.9782825,141.463778 24.0329848,141.403823 L24.0329848,141.403823 L24.0345539,141.376412 C24.002838,135.406503 23.9929553,132.103612 24.0049059,131.467741 C24.0828444,127.320758 26.1575408,124.521623 28.2407138,123.217481 C29.6294958,122.348052 35.6860057,120.411447 46.4102436,117.407666 L46.4102436,117.407666 L47,117.407544 L46.9989041,98.1344518 C46.2515818,97.8453135 45.5272319,97.5077709 44.8294495,97.1255294 L44.8294495,97.1255294 L35.0901265,120.418118 L33,120.418118 L43.0961179,96.0465376 C38.2090043,92.6148815 35,86.8330346 35,80.2787456 C35,69.748773 43.2827321,61.2125436 53.5,61.2125436 Z M90.752,214.254544 L81,214.691544 L80.9975764,225.247106 C81.7070091,225.277057 82.4979576,225.307943 83.4002598,225.337221 C88.817891,225.513017 87.7185575,225.53348 90.1223715,225.107447 C90.3775913,225.062214 90.6670049,225.001763 90.9821066,224.929904 L90.9821066,224.929904 L90.752,214.254544 Z M36.3692344,164.597396 C35.6279677,164.410598 32.770917,164.401309 27.7979158,164.566786 C27.8029855,167.655724 27.8095061,170.965644 27.817956,174.500291 C29.90806,174.624033 31.7181465,174.770452 32.8698328,174.947872 C36.6444347,175.52936 38,175.736578 38,176.750793 C38,177.426937 35.750864,179.076563 31.2525919,181.699672 C30.1647038,182.458507 29.0278145,183.180145 27.8406384,183.862643 C27.8483021,186.73558 27.8567522,189.728302 27.8659888,192.840807 L27.8659888,192.840807 L37.3817151,192.843432 L37.3817151,184.641115 L38.9919657,184.641115 L38.9919657,193.769929 L38.9997218,193.883123 C39.0037781,194.06224 38.9634816,194.193656 38.8788323,194.277372 C38.7772532,194.37783 38.6005701,194.420712 38.3487831,194.406016 L38.3487831,194.406016 L27.871413,194.652471 C27.8924115,201.605288 27.9172206,209.138494 27.9458404,217.252088 L27.9458404,217.252088 L31.1059838,216.941841 C31.0396839,215.970951 30.9676932,214.857665 30.8900118,213.601983 L30.8900118,213.601983 L30,209.761844 C30,209.101488 30.2966706,208.628518 30.8900118,208.342935 C31.483353,208.057351 33.0956961,207.850124 35.727041,207.721254 L35.727041,207.721254 L38.8007952,208.342935 C39.1776367,208.536379 39.4565491,208.679171 39.6375326,208.77131 C43.7305711,210.855082 46.1329896,211.896967 46.8447882,211.896967 C47.6037975,211.896967 48.5147126,211.416487 49.5775334,210.455527 L49.5775334,210.455527 L50.5668682,211.282698 L50.5668682,212.910203 L54.3796878,212.910203 C54.6485249,213.185417 54.8839085,213.454738 55.0858387,213.718167 L55.0858387,213.718167 L55,213.126525 L69.5793064,213.126525 L77.942,212.582544 L77.9412219,198.638255 L77.9262013,196.924542 C74.8576441,194.659715 73.1328052,193.305232 73.0319148,193.003714 C72.7224404,192.078828 74.7035972,191.31068 77.2409979,190.934933 C77.4616574,190.902257 77.6719063,190.872604 77.8741117,190.845926 L77.8741117,190.845926 L77.7138675,172.755044 C77.3169288,172.624968 76.9356694,172.484461 76.5720319,172.336868 C75.6457029,171.96089 74.5856114,169.799466 73.3917572,165.852596 L73.3917572,165.852596 L72.5833317,165.098969 L67.9922061,165.098744 C67.8188288,165.99138 67.6253101,166.933423 67.4133956,167.888959 C66.4441438,172.259378 66.9645569,171.220366 66.0439006,172.388305 C65.1232442,173.556244 65.2405643,173.494442 63.9126887,174.193948 C62.584813,174.893455 62.1997413,175.074479 60.3931589,175.365038 C58.5865765,175.655597 59.5424539,175.725209 57.7575073,175.365038 C55.9725608,175.004867 55.3816188,175.018661 54.5894342,174.193948 C53.7972495,173.369236 53.3641712,172.854755 52.8043847,171.380971 C52.2445981,169.907188 52.1946124,169.393526 52.1946124,167.888959 C52.1946124,167.002786 52.0029725,166.246078 52.0000341,165.274856 L52.0000341,165.274856 L51,165.353544 L51,166.483242 C44.2227635,166.653949 40.1620574,166.594972 38.8178818,166.306313 C36.8016183,165.873324 37.5393214,164.892256 36.3692344,164.597396 Z M80.9988381,199.172623 L81,212.383544 L90.698,211.754544 L90.5763441,206.145385 C87.4291103,204.335996 83.9421806,201.309926 81.4352563,199.489691 C81.2880274,199.38279 81.1425498,199.277099 80.9988381,199.172623 L80.9988381,199.172623 Z M44.964168,181.664521 C45.5204576,181.36402 46.7310706,180.406819 47.7831834,180.673589 C48.4845919,180.851436 49.4375815,181.251116 50.6421524,181.87263 C51.9025457,182.081878 53.2181623,182.230813 54.5890022,182.319436 C56.6452621,182.452371 55.8826823,182.319436 56.9179194,182.319436 C57.6080775,182.319436 58.2871627,181.86108 58.955175,180.944368 C59.0149417,181.192598 59.0149417,181.432649 58.955175,181.664521 C58.9315606,181.756136 58.6194757,182.546612 58.3084088,183.638087 L58.3084088,183.638087 L64,183.637631 L64,186.648084 L63,186.647544 L62.9995648,191.670209 C63.9708934,191.685956 64.923819,191.734939 65.617838,191.718786 C69.0581069,191.638714 71.0517492,191.900041 71.7366483,192.140931 C72.7647161,192.502519 73.1653319,193.027395 72.9384957,193.715561 C72.7701519,196.141254 72.6646795,197.845176 72.6220784,198.827327 C72.4495986,202.803788 72.42647,205.118265 72.3377642,205.796978 C72.1554091,207.192229 72.023152,207.79118 71.3552559,208.792866 C70.6873598,209.794552 70.5275144,209.956442 69.4311852,210.556755 C68.3348559,211.157067 67.8882902,211.498764 66.1739712,211.62996 C64.4596521,211.761156 64.2456029,211.909677 61.959816,211.128536 C59.6740291,210.347395 59.7551421,210.396261 58.9084846,209.222395 C58.0618272,208.048529 57.4687499,206.637334 57.0380472,205.252569 C56.2773278,202.806759 56.1048062,200.20506 55.8590614,199.250646 C55.2817411,197.008473 54.8002504,195.248016 55.0836034,194.687184 C55.3669564,194.126351 55.8793717,194.534035 56.4365468,194.276393 C56.8079968,194.104632 57.2448808,193.690462 57.7471986,193.033884 C57.9870058,192.934396 58.5179563,192.636745 59.3400501,192.140931 C59.9056951,191.799784 60.9106218,191.691226 61.9991815,191.669787 L61.9991815,191.669787 L62,186.647544 L57.5247203,186.647822 C56.8208809,189.415247 56.0807382,192.391877 55.8865445,192.849499 C55.5189568,193.715729 54.461802,195.093236 53.4624995,195.599635 C52.7962979,195.937235 51.7912416,196.294314 50.4473308,196.670871 C48.9372061,196.741964 47.5976807,196.498627 46.4287546,195.940862 C44.6753655,195.104214 44.7583116,194.012393 44.3924503,192.849499 C44.026589,191.686605 43.9885837,190.459643 43.7482453,188.080233 C43.7006748,187.609273 43.6361082,187.124833 43.5647212,186.648092 L43.5647212,186.648092 L40,186.648084 L40,183.637631 L43.0729307,183.637066 C42.9982066,183.114335 42.9713965,182.75078 43.0380216,182.641153 C43.2423102,182.305007 43.6986395,182.538486 44.1141066,182.319436 C44.5295736,182.100386 44.4078784,181.965022 44.964168,181.664521 Z M55.0954038,198.689895 L56,201.537016 C53.0622442,201.171697 50.8781829,201.085618 49.447816,201.278777 C47.3022657,201.568517 48.2361014,202.332807 46.3846218,202.623546 C45.1503021,202.817373 39.0220948,202.66025 28,202.152178 L28,202.152178 L28,199.895992 C33.4718239,200.112618 37.1488003,200.264685 39.030929,200.352193 C43.4975974,200.559867 45.786892,200.766894 46.3846218,200.352193 C47.8479163,199.336968 47.8479163,198.689895 49.1258874,198.689895 L49.1258874,198.689895 L55.0954038,198.689895 Z M89.8325693,171.901181 C89.5173623,172.048625 89.1992371,172.193854 88.8781935,172.336868 C86.1167914,173.566974 83.3723106,173.784163 80.9305745,173.478033 C80.95203,174.916966 80.9751718,176.427861 81,178.010717 L81,178.010717 L80.9994992,190.671401 C81.8957839,190.699264 82.9176339,190.788822 84.3228738,190.934933 C86.7332175,191.185551 88.0273981,191.46106 90.2649583,191.940021 L90.2649583,191.940021 Z M24.006151,151.650511 C23.9511257,153.212559 23.9541974,155.139085 24.0153659,157.43009 L24.0153659,157.43009 L24.0159742,174.308153 C24.0917228,174.31148 24.1674023,174.314828 24.2425399,174.314478 C24.1818543,165.38796 24.1325568,157.852537 24.0953226,151.709982 C24.0794308,151.699809 24.0635474,151.689629 24.0476725,151.679443 L24.0476725,151.679443 Z M49.9415424,146.82428 L47.7154489,146.824905 L46.8478703,147.686192 C45.566661,152.1969 44.4290017,154.667099 43.4348926,155.096789 C40.0166583,156.574271 35.147488,157.430415 30.2282801,155.096789 C29.3957663,154.701852 28.5815384,154.292133 27.7856194,153.864825 C27.7870916,156.554407 27.7902068,159.494223 27.7964707,162.68758 C32.2432464,162.513223 35.1008343,162.524053 36.3692344,162.72007 C37.7118128,162.927549 38.4613566,163.15774 38.6178659,163.410642 C38.9951131,163.79525 39.3144784,164.123343 39.5759619,164.39492 C39.7881095,164.615257 42.3347412,164.701256 47.2151652,164.652589 C45.6685813,163.177546 44.721967,161.982743 44.3753222,161.068181 C43.750961,159.420912 44.0160894,158.692296 44.3753222,157.853659 C44.7345551,157.015021 45.1441755,156.575091 45.7344115,155.216795 C46.3246475,153.858498 45.8558464,154.12159 46.3713861,153.260163 C46.8869258,152.398735 47.123729,151.924964 48.2192429,151.064832 C49.3147569,150.2047 49.3581318,150.2934 50.6072825,149.934389 C50.6215179,149.930298 50.6355948,149.926241 50.6464234,149.9219 C50.3726861,148.770768 50.1377258,147.738228 49.9415424,146.82428 L49.9415424,146.82428 Z M58.2809622,121.619256 L58.2809622,121.619256 L59.45547,138.905787 L60.9440432,158.803034 C63.945431,158.97482 65.6453834,159.060713 66.0439006,159.060713 C66.8850343,159.060713 69.0321984,158.691032 68.9996337,159.060713 C68.9810068,159.272168 68.7818256,160.700217 68.4333477,162.7018 L68.4333477,162.7018 L72.5833317,162.702013 L72.6102117,162.424807 C72.7524938,161.071985 73.0130089,160.217246 73.3917572,159.86059 C73.8949736,159.386726 74.7072728,159.556054 77.6012443,159.74653 L77.6012443,159.74653 L77.5416796,152.937848 L77.4846183,152.438661 C77.0800503,148.985657 76.5675714,146.400106 75.9471814,144.682008 C75.297249,142.882095 73.7453196,140.661077 71.2913934,138.018955 C64.7097176,130.378575 61.059805,126.094092 60.3416554,125.165506 C59.5245228,124.108932 58.9506245,122.988376 58.2812156,121.560613 L58.2812156,121.560613 Z M76.4028541,124.405345 C76.6666955,125.012683 76.9398311,125.707577 77.2222607,126.490026 C78.3342682,129.570757 79.0978265,131.520077 79.4793255,132.980212 C79.8608245,134.440347 80.2700322,137.004374 80.5399625,141.118051 C80.7161187,143.802634 80.8667784,150.068514 80.9919414,159.915693 L80.9919414,159.915693 L81.1224162,159.921512 C83.1127448,159.99835 85.7172546,160.083557 88.3590115,160.189824 L89.5788278,160.240412 L89.0020827,133.695504 C88.5672852,131.309668 88.0565918,129.704402 87.4700024,128.879707 C86.883413,128.055012 85.6431575,127.198592 83.749236,126.310446 C81.2279813,125.662847 78.9072691,125.061579 76.7870992,124.506642 L76.7870992,124.506642 Z M57.9971089,146.824549 L52.353,146.824544 L52.8212188,149.522014 C52.9233645,149.52445 53.034933,149.52842 53.1581608,149.533827 C54.4308409,149.589671 55.3941925,149.484955 57.1941001,150.223411 C57.6635438,150.416012 58.0360771,150.623841 58.3117,150.846897 L58.3117,150.846897 L58.2809622,150.350628 C58.1828775,149.136136 58.0882597,147.960776 57.9971089,146.824549 L57.9971089,146.824549 Z M52.891,118.538544 L52.4781384,122.834792 L51.4267061,136.738719 L51.4267061,141.532305 L51.874,144.084544 L57.7780025,144.084922 C57.285593,137.907897 56.9084066,133.031409 56.6464432,129.45546 C56.5835472,128.596892 56.521055,127.736862 56.4589668,126.875368 C55.5995621,114.950853 56.2355198,123.590982 56.106594,120.180574 C56.0876498,119.679452 56.072881,119.246253 56.0622877,118.880976 L56.0622877,118.880976 L52.891,118.538544 Z M50.0542179,124.136966 C46.8208208,127.663267 33.4699456,137.220608 30.4274538,139.918762 C29.8979444,140.388343 29.4040903,140.847982 28.946952,141.296762 C33.1465643,141.099623 37.5539534,140.962676 40.1315654,140.838186 C45.0661601,140.59986 46.1975319,140.186015 46.8478703,140.838186 C47.2814293,141.272967 47.5706222,142.355413 47.7154489,144.085526 L47.7154489,144.085526 L49.4090208,144.08422 C49.2677623,143.228491 49.1971331,142.58877 49.1971331,142.165055 C49.1971331,140.422328 48.7535836,144.111476 49.1971331,135.61315 C49.415017,131.438533 49.6933335,127.677902 50.0320826,124.331256 L50.0320826,124.331256 Z M60.6166556,119.939325 C60.8017395,120.368436 61.0597689,120.827076 61.3907437,121.315246 C63.1960256,123.977935 77.3985167,138.704997 78.7393404,142.731267 C78.7823886,142.860534 78.8247202,142.987935 78.8663369,143.113649 L78.8663369,143.113649 L78.8528524,142.029575 L78.8231449,141.632726 C78.5576055,138.1095 78.3414346,135.893497 78.174632,134.984716 C78.0016515,134.042276 77.5226522,132.578368 76.7376341,130.592994 L76.7376341,130.592994 L73.5003867,123.640888 C66.4909743,121.781495 62.2061855,120.551569 60.6460203,119.951111 L60.6460203,119.951111 Z M47.1488549,121.617292 C43.1965659,122.929429 33.9568419,125.075874 31.2611204,126.341811 C28.2407138,127.760223 28.2052986,128.350308 27.8869515,132.286215 C27.8517475,132.721462 27.8256276,134.540255 27.8081084,137.743758 C28.4462009,137.199169 29.0856151,136.690213 29.7263511,136.216888 C40.0583248,128.029528 45.5744726,123.62688 46.2747944,123.008943 C46.6482993,122.679377 46.9284883,122.248883 47.1153613,121.717459 L47.1153613,121.717459 Z M62.5800895,96.8942916 C61.7730666,97.3637309 60.9284226,97.7725262 60.0519813,98.1146756 L60.0519813,98.1146756 L60.8282023,115.569933 C64.6638978,116.686401 68.0802588,117.686684 71.0772853,118.570782 L71.0772853,118.570782 Z" id="path-1"></path>
    </defs>
    <g id="Page-1" stroke="none" stroke-width="1" fill="none" fill-rule="evenodd">
        <g id="Group-2" transform="translate(4.000000, 4.000000)">
            <g id="wlg-data-beers-logo">
                <path d="M0.09974,144.003954 L0.09974,144.003954 C0.09974,64.4771289 64.34512,0.00790745645 143.5958,0.00790745645 L143.5958,0.00790745645 C181.653326,0.00790745645 218.152105,15.1788784 245.06284,42.183372 C271.973576,69.1878737 287.091862,105.813826 287.091862,144.003956 L287.091862,144.003956 C287.091862,223.530791 222.846502,288.000002 143.595802,288.000002 L143.595802,288.000002 C64.345122,288.000002 0.09974,223.530791 0.09974,144.003956 L0.09974,144.003954 Z" id="Path" stroke="#000000" stroke-width="8" stroke-linejoin="round"></path>
                <g id="Group" transform="translate(112.000000, 45.156794)" fill="#000000" fill-rule="nonzero">
                    <path d="M1.734375,113.155762 L1.734375,61.1313717 L13,61.1313717 C16.84375,61.1313717 19.885417,61.7219644 22.125,62.9031487 C24.364583,64.084333 25.963542,65.8508839 26.921875,68.2028003 C27.880208,70.5547167 28.359375,73.4867724 28.359375,76.9989675 L28.359375,96.1435668 C28.359375,99.8230097 27.880208,102.927539 26.921875,105.457156 C25.963542,107.97632 24.40625,109.889212 22.25,111.195832 C20.09375,112.502452 17.203125,113.155762 13.578125,113.155762 L1.734375,113.155762 Z M8.96875,107.950187 L13.0625,107.950187 C15.708333,107.950187 17.583333,107.437992 18.6875,106.413602 C19.802083,105.389212 20.473958,103.894438 20.703125,101.929281 C20.942708,99.9536714 21.0625,97.5756222 21.0625,94.7951348 L21.0625,77.8926957 C21.0625,75.1958316 20.890625,73.0163891 20.546875,71.3543682 C20.213542,69.681894 19.46875,68.4588975 18.3125,67.6853787 C17.15625,66.9118598 15.34375,66.5250999 12.875,66.5250999 L8.96875,66.5250999 L8.96875,107.950187 Z M32.64981,113.155762 L43.64981,61.1313717 L50.634185,61.1313717 L61.696685,113.155762 L54.852935,113.155762 L52.49356,100.047748 L41.93106,100.047748 L39.43106,113.155762 L32.64981,113.155762 Z M42.884185,94.8578525 L51.52481,94.8578525 L47.18106,71.417086 L42.884185,94.8578525 Z M70.605376,113.155762 L70.605376,66.5250999 L61.824126,66.5250999 L61.824126,61.1313717 L86.339751,61.1313717 L86.339751,66.5250999 L77.824126,66.5250999 L77.824126,113.155762 L70.605376,113.155762 Z M88.393706,113.155762 L99.393706,61.1313717 L106.378081,61.1313717 L117.440581,113.155762 L110.596831,113.155762 L108.237456,100.047748 L97.674956,100.047748 L95.174956,113.155762 L88.393706,113.155762 Z M98.628081,94.8578525 L107.268706,94.8578525 L102.924956,71.417086 L98.628081,94.8578525 Z" id="Shape"></path>
                    <path d="M1.734375,173.775718 L1.734375,121.751328 L13.640625,121.751328 C15.984375,121.751328 18.020833,122.012652 19.75,122.5353 C21.479167,123.047495 22.916667,123.836694 24.0625,124.902896 C25.21875,125.969098 26.072917,127.327983 26.625,128.979551 C27.1875,130.631118 27.46875,132.570143 27.46875,134.796624 C27.46875,136.939481 27.197917,138.794882 26.65625,140.362826 C26.125,141.920317 25.3125,143.148541 24.21875,144.047495 C23.135417,144.946449 21.744792,145.521363 20.046875,145.772234 C22.130208,146.242617 23.8125,147.047495 25.09375,148.186868 C26.375,149.315788 27.322917,150.76875 27.9375,152.545753 C28.5625,154.322756 28.875,156.45516 28.875,158.942965 C28.875,161.169446 28.614583,163.202548 28.09375,165.042268 C27.583333,166.881989 26.786458,168.444707 25.703125,169.730422 C24.619792,171.016136 23.234375,172.014394 21.546875,172.725195 C19.859375,173.425544 17.864583,173.775718 15.5625,173.775718 L1.734375,173.775718 Z M8.96875,168.570143 L13.828125,168.570143 C17.067708,168.570143 19.229167,167.812304 20.3125,166.296624 C21.40625,164.770492 21.953125,162.319272 21.953125,158.942965 C21.953125,156.758297 21.666667,154.929028 21.09375,153.45516 C20.520833,151.97084 19.604167,150.857599 18.34375,150.115439 C17.083333,149.362826 15.385417,148.986519 13.25,148.986519 L8.96875,148.986519 L8.96875,168.570143 Z M8.96875,143.467356 L13.25,143.467356 C15.302083,143.467356 16.901042,143.179899 18.046875,142.604986 C19.203125,142.019621 20.015625,141.08408 20.484375,139.798366 C20.953125,138.512652 21.1875,136.845405 21.1875,134.796624 C21.1875,132.392443 20.822917,130.657251 20.09375,129.591049 C19.375,128.524847 18.244792,127.850631 16.703125,127.568401 C15.171875,127.286171 13.166667,127.145056 10.6875,127.145056 L8.96875,127.145056 L8.96875,143.467356 Z M35.270325,173.775718 L35.270325,121.751328 L55.364075,121.751328 L55.364075,127.145056 L42.5047,127.145056 L42.5047,144.361084 L52.9422,144.361084 L52.9422,149.503941 L42.5047,149.503941 L42.5047,168.570143 L55.489075,168.570143 L55.489075,173.775718 L35.270325,173.775718 Z M61.318283,173.775718 L61.318283,121.751328 L81.412033,121.751328 L81.412033,127.145056 L68.552658,127.145056 L68.552658,144.361084 L78.990158,144.361084 L78.990158,149.503941 L68.552658,149.503941 L68.552658,168.570143 L81.537033,168.570143 L81.537033,173.775718 L61.318283,173.775718 Z M87.366241,173.775718 L87.366241,121.751328 L97.803741,121.751328 C101.251658,121.751328 104.105824,122.211258 106.366241,123.131119 C108.637074,124.05098 110.314158,125.530073 111.397491,127.568401 C112.491241,129.596275 113.038116,132.26178 113.038116,135.564917 C113.038116,137.571885 112.824574,139.401154 112.397491,141.052721 C111.970408,142.704289 111.282908,144.099759 110.334991,145.239133 C109.397491,146.368052 108.163116,147.18861 106.631866,147.700805 L113.991241,173.775718 L107.022491,173.775718 L100.225616,149.378505 L94.600616,149.378505 L94.600616,173.775718 L87.366241,173.775718 Z M94.600616,144.17293 L97.350616,144.17293 C99.402699,144.17293 101.064158,143.916833 102.334991,143.404638 C103.616241,142.88199 104.553741,142.003941 105.147491,140.770491 C105.751658,139.526589 106.053741,137.791397 106.053741,135.564917 C106.053741,132.523105 105.496449,130.327983 104.381866,128.979551 C103.277699,127.631119 101.084991,126.956903 97.803741,126.956903 L94.600616,126.956903 L94.600616,144.17293 Z M132.800933,174.355857 C129.821766,174.355857 127.337391,173.713 125.347808,172.427286 C123.368641,171.141572 121.863433,169.364568 120.832183,167.096275 C119.81135,164.827982 119.2176,162.193836 119.050933,159.193836 L125.441558,157.469098 C125.576975,159.308819 125.868641,161.085823 126.316558,162.800108 C126.764475,164.503941 127.49885,165.904638 128.519683,167.002199 C129.540516,168.089306 130.9676,168.632861 132.800933,168.632861 C134.68635,168.632861 136.108225,168.110213 137.066558,167.064917 C138.024891,166.01962 138.504058,164.509167 138.504058,162.533558 C138.504058,160.181641 137.9676,158.289655 136.894683,156.857599 C135.832183,155.415091 134.488433,153.967356 132.863433,152.514394 L124.160308,144.815788 C122.462391,143.310561 121.207183,141.669446 120.394683,139.892443 C119.582183,138.115439 119.175933,135.925544 119.175933,133.322756 C119.175933,129.507426 120.264475,126.554463 122.441558,124.463871 C124.618641,122.362826 127.582183,121.312303 131.332183,121.312303 C133.384266,121.312303 135.18635,121.578854 136.738433,122.111955 C138.300933,122.645056 139.603016,123.47084 140.644683,124.589307 C141.68635,125.697321 142.514475,127.098018 143.129058,128.791397 C143.754058,130.484777 144.175933,132.465613 144.394683,134.733906 L138.254058,136.395927 C138.118641,134.681642 137.858225,133.10847 137.472808,131.676415 C137.097808,130.244359 136.425933,129.089307 135.457183,128.211258 C134.49885,127.333209 133.12385,126.894185 131.332183,126.894185 C129.540516,126.894185 128.144683,127.375021 127.144683,128.336694 C126.144683,129.298366 125.644683,130.719969 125.644683,132.601502 C125.644683,134.190352 125.910308,135.502199 126.441558,136.537042 C126.972808,137.561432 127.837391,138.606728 129.035308,139.67293 L137.800933,147.387216 C139.759266,149.091049 141.483225,151.134603 142.972808,153.517878 C144.472808,155.8907 145.222808,158.702548 145.222808,161.953418 C145.222808,164.524847 144.68635,166.740874 143.613433,168.601502 C142.550933,170.462129 141.0926,171.888959 139.238433,172.88199 C137.384266,173.864568 135.238433,174.355857 132.800933,174.355857 Z" id="Shape"></path>
                    <path d="M8.453125,52.4634146 L0,0.43902439 L6.015625,0.43902439 L11.59375,37.8188153 L18.5625,0.642857143 L23.6875,0.642857143 L30.734375,38.0069686 L36.171875,0.43902439 L42.0625,0.43902439 L33.734375,52.4634146 L28.484375,52.4634146 L21.25,13.9233449 L13.953125,52.4634146 L8.453125,52.4634146 Z M48.390289,52.4634146 L48.390289,0.43902439 L55.624664,0.43902439 L55.624664,47.2578397 L68.874664,47.2578397 L68.874664,52.4634146 L48.390289,52.4634146 Z M85.773619,53.1062718 C82.523619,53.1062718 79.929869,52.4111502 77.992369,51.0209059 C76.054869,49.6306617 74.648619,47.6080136 73.773619,44.9529617 C72.898619,42.2979097 72.461119,39.1045296 72.461119,35.3728223 L72.461119,17.9686411 C72.461119,14.163763 72.851744,10.923345 73.632994,8.24738676 C74.424661,5.57142854 75.830911,3.52787456 77.851744,2.11672474 C79.882994,0.705574913 82.711119,3.55271368e-15 86.336119,3.55271368e-15 C89.586119,3.55271368e-15 92.200702,0.54355404 94.179869,1.63066202 C96.169452,2.71777 97.612161,4.3902439 98.507994,6.64808362 C99.403827,8.89547035 99.851744,11.728223 99.851744,15.1463415 L99.851744,17.0749129 L93.070494,17.0749129 L93.070494,15.4756098 C93.070494,13.207317 92.919452,11.3571428 92.617369,9.92508711 C92.315286,8.4825784 91.705911,7.41114986 90.789244,6.71080139 C89.872577,6 88.435077,5.6445993 86.476744,5.6445993 C84.341327,5.6445993 82.794452,6.13588847 81.836119,7.1184669 C80.877786,8.10104533 80.278827,9.43902439 80.039244,11.1324042 C79.799661,12.825784 79.679869,14.7439024 79.679869,16.8867596 L79.679869,36.1567944 C79.679869,38.6341463 79.862161,40.7090589 80.226744,42.3815331 C80.591327,44.0540073 81.284036,45.2979094 82.304869,46.1132404 C83.336119,46.9181181 84.789244,47.3205575 86.664244,47.3205575 C88.539244,47.3205575 89.987161,46.8710798 91.007994,45.9721254 C92.039244,45.0731711 92.742369,43.7456446 93.117369,41.989547 C93.502786,40.2334495 93.695494,38.054007 93.695494,35.4512195 L93.695494,31.8449477 L87.117369,31.8449477 L87.117369,26.71777 L100.226744,26.71777 L100.226744,52.4634146 L95.679869,52.4634146 L94.976744,46.489547 C94.299661,48.4128923 93.231952,49.996516 91.773619,51.2404181 C90.325702,52.4843202 88.325702,53.1062718 85.773619,53.1062718 Z" id="Shape"></path>
                </g>
            </g>
            <mask id="mask-2" fill="white">
                <use xlink:href="#path-1"></use>
            </mask>
            <use id="Combined-Shape" fill="#000000" xlink:href="#path-1"></use>
        </g>
    </g>
</svg>