<?xml version="1.0" encoding="UTF-8"?>
<svg width="296px" height="295px" viewBox="0 0 296 295" version="1.1" xmlns="http://www.w3.org/2000/svg" xmlns:xlink="http://www.w3.org/1999/xlink">
    <!-- Generator: Sketch 59.1 (86144) - https://sketch.com -->
    <title>WLG Data Beers</title>
    <desc>Created with Sketch.</desc>
    <g id="Page-1" stroke="none" stroke-width="1" fill="none" fill-rule="evenodd">
        <g id="WLG-Data-Beers" transform="translate(4.000000, 4.000000)">
            <g id="Group">
                <path d="M0.09974,143.50394 L0.09974,143.50394 C0.09974,64.25325 64.34512,0.00788 143.5958,0.00788 L143.5958,0.00788 C181.653326,0.00788 218.152105,15.126174 245.06284,42.036902 C271.973576,68.947638 287.091862,105.446417 287.091862,143.503942 L287.091862,143.503942 C287.091862,222.754642 222.846502,287.000002 143.595802,287.000002 L143.595802,287.000002 C64.345122,287.000002 0.09974,222.754642 0.09974,143.503942 L0.09974,143.50394 Z" id="Path" stroke="#000000" stroke-width="8" stroke-linejoin="round"></path>
                <path d="M98.08112,173.61453 L98.08112,121.77078 L109.346745,121.77078 C113.190495,121.77078 116.232162,122.359322 118.471745,123.536405 C120.711328,124.713488 122.310287,126.473905 123.26862,128.817655 C124.226953,131.161405 124.70612,134.08328 124.70612,137.58328 L124.70612,156.661405 C124.70612,160.328072 124.226953,163.421822 123.26862,165.942655 C122.310287,168.453072 120.752995,170.359322 118.596745,171.661405 C116.440495,172.963488 113.54987,173.61453 109.92487,173.61453 L98.08112,173.61453 Z M105.315495,168.42703 L109.409245,168.42703 C112.055078,168.42703 113.930078,167.916613 115.034245,166.89578 C116.148828,165.874947 116.820703,164.385363 117.04987,162.42703 C117.289453,160.45828 117.409245,158.088488 117.409245,155.317655 L117.409245,138.473905 C117.409245,135.786405 117.23737,133.61453 116.89362,131.95828 C116.560287,130.291613 115.815495,129.072863 114.659245,128.30203 C113.502995,127.531197 111.690495,127.14578 109.221745,127.14578 L105.315495,127.14578 L105.315495,168.42703 Z M128.996555,173.61453 L139.996555,121.77078 L146.98093,121.77078 L158.04343,173.61453 L151.19968,173.61453 L148.840305,160.55203 L138.277805,160.55203 L135.777805,173.61453 L128.996555,173.61453 Z M139.23093,155.380155 L147.871555,155.380155 L143.527805,132.02078 L139.23093,155.380155 Z M166.952121,173.61453 L166.952121,127.14578 L158.170871,127.14578 L158.170871,121.77078 L182.686496,121.77078 L182.686496,127.14578 L174.170871,127.14578 L174.170871,173.61453 L166.952121,173.61453 Z M184.740451,173.61453 L195.740451,121.77078 L202.724826,121.77078 L213.787326,173.61453 L206.943576,173.61453 L204.584201,160.55203 L194.021701,160.55203 L191.521701,173.61453 L184.740451,173.61453 Z M194.974826,155.380155 L203.615451,155.380155 L199.271701,132.02078 L194.974826,155.380155 Z" id="Shape" fill="#000000" fill-rule="nonzero"></path>
                <path d="M98.08112,234.024 L98.08112,182.18025 L109.98737,182.18025 C112.33112,182.18025 114.367578,182.440667 116.096745,182.9615 C117.825912,183.471917 119.263412,184.258375 120.409245,185.320875 C121.565495,186.383375 122.419662,187.737542 122.971745,189.383375 C123.534245,191.029208 123.815495,192.9615 123.815495,195.18025 C123.815495,197.315667 123.544662,199.164625 123.002995,200.727125 C122.471745,202.279208 121.659245,203.503167 120.565495,204.399 C119.482162,205.294833 118.091537,205.86775 116.39362,206.11775 C118.476953,206.5865 120.159245,207.388583 121.440495,208.524 C122.721745,209.649 123.669662,211.096917 124.284245,212.86775 C124.909245,214.638583 125.221745,216.763583 125.221745,219.24275 C125.221745,221.4615 124.961328,223.487542 124.440495,225.320875 C123.930078,227.154208 123.133203,228.7115 122.04987,229.99275 C120.966537,231.274 119.58112,232.268792 117.89362,232.977125 C116.20612,233.675042 114.211328,234.024 111.909245,234.024 L98.08112,234.024 Z M105.315495,228.8365 L110.17487,228.8365 C113.414453,228.8365 115.575912,228.081292 116.659245,226.570875 C117.752995,225.050042 118.29987,222.607333 118.29987,219.24275 C118.29987,217.065667 118.013412,215.24275 117.440495,213.774 C116.867578,212.294833 115.950912,211.185458 114.690495,210.445875 C113.430078,209.695875 111.732162,209.320875 109.596745,209.320875 L105.315495,209.320875 L105.315495,228.8365 Z M105.315495,203.820875 L109.596745,203.820875 C111.648828,203.820875 113.247787,203.534417 114.39362,202.9615 C115.54987,202.378167 116.36237,201.445875 116.83112,200.164625 C117.29987,198.883375 117.534245,197.221917 117.534245,195.18025 C117.534245,192.784417 117.169662,191.05525 116.440495,189.99275 C115.721745,188.93025 114.591537,188.258375 113.04987,187.977125 C111.51862,187.695875 109.513412,187.55525 107.034245,187.55525 L105.315495,187.55525 L105.315495,203.820875 Z M131.61707,234.024 L131.61707,182.18025 L151.71082,182.18025 L151.71082,187.55525 L138.851445,187.55525 L138.851445,204.7115 L149.288945,204.7115 L149.288945,209.8365 L138.851445,209.8365 L138.851445,228.8365 L151.83582,228.8365 L151.83582,234.024 L131.61707,234.024 Z M157.665028,234.024 L157.665028,182.18025 L177.758778,182.18025 L177.758778,187.55525 L164.899403,187.55525 L164.899403,204.7115 L175.336903,204.7115 L175.336903,209.8365 L164.899403,209.8365 L164.899403,228.8365 L177.883778,228.8365 L177.883778,234.024 L157.665028,234.024 Z M183.712986,234.024 L183.712986,182.18025 L194.150486,182.18025 C197.598403,182.18025 200.452569,182.638583 202.712986,183.55525 C204.983819,184.471917 206.660903,185.945875 207.744236,187.977125 C208.837986,189.997958 209.384861,192.654208 209.384861,195.945875 C209.384861,197.945875 209.171319,199.768792 208.744236,201.414625 C208.317153,203.060458 207.629653,204.451083 206.681736,205.5865 C205.744236,206.7115 204.509861,207.529208 202.978611,208.039625 L210.337986,234.024 L203.369236,234.024 L196.572361,209.7115 L190.947361,209.7115 L190.947361,234.024 L183.712986,234.024 Z M190.947361,204.524 L193.697361,204.524 C195.749444,204.524 197.410903,204.268792 198.681736,203.758375 C199.962986,203.237542 200.900486,202.362542 201.494236,201.133375 C202.098403,199.893792 202.400486,198.164625 202.400486,195.945875 C202.400486,192.914625 201.843194,190.727125 200.728611,189.383375 C199.624444,188.039625 197.431736,187.36775 194.150486,187.36775 L190.947361,187.36775 L190.947361,204.524 Z M229.147678,234.602125 C226.168511,234.602125 223.684136,233.9615 221.694553,232.68025 C219.715386,231.399 218.210178,229.628167 217.178928,227.36775 C216.158095,225.107333 215.564345,222.482333 215.397678,219.49275 L221.788303,217.774 C221.92372,219.607333 222.215386,221.378167 222.663303,223.0865 C223.11122,224.784417 223.845595,226.18025 224.866428,227.274 C225.887261,228.357333 227.314345,228.899 229.147678,228.899 C231.033095,228.899 232.45497,228.378167 233.413303,227.3365 C234.371636,226.294833 234.850803,224.789625 234.850803,222.820875 C234.850803,220.477125 234.314345,218.591708 233.241428,217.164625 C232.178928,215.727125 230.835178,214.284417 229.210178,212.8365 L220.507053,205.164625 C218.809136,203.664625 217.553928,202.029208 216.741428,200.258375 C215.928928,198.487542 215.522678,196.30525 215.522678,193.7115 C215.522678,189.909417 216.61122,186.966708 218.788303,184.883375 C220.965386,182.789625 223.928928,181.74275 227.678928,181.74275 C229.731011,181.74275 231.533095,182.008375 233.085178,182.539625 C234.647678,183.070875 235.949761,183.893792 236.991428,185.008375 C238.033095,186.112542 238.86122,187.508375 239.475803,189.195875 C240.100803,190.883375 240.522678,192.857333 240.741428,195.11775 L234.600803,196.774 C234.465386,195.065667 234.20497,193.497958 233.819553,192.070875 C233.444553,190.643792 232.772678,189.49275 231.803928,188.61775 C230.845595,187.74275 229.470595,187.30525 227.678928,187.30525 C225.887261,187.30525 224.491428,187.784417 223.491428,188.74275 C222.491428,189.701083 221.991428,191.11775 221.991428,192.99275 C221.991428,194.576083 222.257053,195.883375 222.788303,196.914625 C223.319553,197.935458 224.184136,198.977125 225.382053,200.039625 L234.147678,207.727125 C236.106011,209.425042 237.82997,211.4615 239.319553,213.8365 C240.819553,216.201083 241.569553,219.003167 241.569553,222.24275 C241.569553,224.80525 241.033095,227.013583 239.960178,228.86775 C238.897678,230.721917 237.439345,232.143792 235.585178,233.133375 C233.731011,234.112542 231.585178,234.602125 229.147678,234.602125 Z" id="Shape" fill="#000000" fill-rule="nonzero"></path>
                <path d="M104.79987,113.13292 L96.346745,61.28917 L102.36237,61.28917 L107.940495,98.53917 L114.909245,61.492295 L120.034245,61.492295 L127.08112,98.72667 L132.51862,61.28917 L138.409245,61.28917 L130.08112,113.13292 L124.83112,113.13292 L117.596745,74.72667 L110.29987,113.13292 L104.79987,113.13292 Z M144.737034,113.13292 L144.737034,61.28917 L151.971409,61.28917 L151.971409,107.94542 L165.221409,107.94542 L165.221409,113.13292 L144.737034,113.13292 Z M182.120364,113.773545 C178.870364,113.773545 176.276614,113.080837 174.339114,111.69542 C172.401614,110.310003 170.995364,108.294378 170.120364,105.648545 C169.245364,103.002712 168.807864,99.82042 168.807864,96.10167 L168.807864,78.75792 C168.807864,74.9662533 169.198489,71.7370867 169.979739,69.07042 C170.771406,66.4037533 172.177656,64.367295 174.198489,62.961045 C176.229739,61.554795 179.057864,60.85167 182.682864,60.85167 C185.932864,60.85167 188.547447,61.3933367 190.526614,62.47667 C192.516197,63.5600033 193.958906,65.22667 194.854739,67.47667 C195.750572,69.7162533 196.198489,72.53917 196.198489,75.94542 L196.198489,77.867295 L189.417239,77.867295 L189.417239,76.273545 C189.417239,74.0131283 189.266197,72.1693783 188.964114,70.742295 C188.662031,69.304795 188.052656,68.2370867 187.135989,67.53917 C186.219322,66.8308367 184.781822,66.47667 182.823489,66.47667 C180.688072,66.47667 179.141197,66.9662533 178.182864,67.94542 C177.224531,68.9245867 176.625572,70.25792 176.385989,71.94542 C176.146406,73.63292 176.026614,75.5443783 176.026614,77.679795 L176.026614,96.88292 C176.026614,99.35167 176.208906,101.419378 176.573489,103.086045 C176.938072,104.752712 177.630781,105.992295 178.651614,106.804795 C179.682864,107.606878 181.135989,108.00792 183.010989,108.00792 C184.885989,108.00792 186.333906,107.560003 187.354739,106.66417 C188.385989,105.768337 189.089114,104.44542 189.464114,102.69542 C189.849531,100.94542 190.042239,98.773545 190.042239,96.179795 L190.042239,92.586045 L183.464114,92.586045 L183.464114,87.47667 L196.573489,87.47667 L196.573489,113.13292 L192.026614,113.13292 L191.323489,107.179795 C190.646406,109.096462 189.578697,110.674587 188.120364,111.91417 C186.672447,113.153753 184.672447,113.773545 182.120364,113.773545 Z" id="Shape" fill="#000000" fill-rule="nonzero"></path>
            </g>
        </g>
    </g>
</svg>