<?xml version="1.0" encoding="UTF-8"?>
<svg width="296px" height="295px" viewBox="0 0 296 295" version="1.1" xmlns="http://www.w3.org/2000/svg" xmlns:xlink="http://www.w3.org/1999/xlink">
    <!-- Generator: Sketch 59.1 (86144) - https://sketch.com -->
    <title>Group 2</title>
    <desc>Created with Sketch.</desc>
    <defs>
        <path d="M53.5,61 C63.7172679,61 72,69.5065898 72,80 C72,86.2240235 69.0860455,91.7490622 64.582826,95.2146241 L64.582826,95.2146241 L74,119 L73.9294881,119.000019 C82.2096021,121.449283 86.5980298,122.824021 87.0947711,123.124233 C88.1781413,123.778981 89.2268782,123.937835 90.9791501,126.946366 C92.731422,129.954897 92.4536231,130.259599 92.9779672,132.686409 C93.1263898,133.37335 93.3933976,142.44094 93.7786582,159.892073 C95.8853645,160.015873 97.7109346,160.162502 98.8698328,160.340414 C102.644435,160.919883 104,161.126381 104,162.137075 C104,162.810871 101.750864,164.45477 97.2525919,167.06877 C96.2064531,167.79595 95.1150018,168.488853 93.9781403,169.143708 C94.1196375,175.875923 94.2743126,183.539438 94.4429489,192.137995 C98.1402285,192.884585 97.4411169,192.758948 99.4507056,192.758948 C101.605061,192.758948 106.60184,192.086257 107.778489,192.333562 C108.562922,192.498432 108.970092,192.938386 109,193.653423 C107.060842,200.280291 105.963503,203.850341 105.707981,204.363572 C105.324698,205.13342 104.993614,206.294919 103.84422,206.899999 C102.694826,207.50508 102.350916,208 100.454637,208 C99.1330573,208 97.0349993,207.838353 94.7313297,207.173956 C94.8270792,212.225044 94.9264615,217.532877 95.0294621,223.09929 C96.8919702,222.601477 98.6346143,222.159366 99.3270488,222.18819 C100.236188,222.226035 100.780857,222.659304 100.961055,223.487997 C100.159044,231.60482 99.6682102,235.987924 99.4885524,236.637308 C99.2190657,237.611385 99.088294,239.0323 97.9301324,239.965041 C96.9846943,240.726462 96.6230922,241.296423 95.3697094,241.680224 C95.568139,252.628932 95.7782358,264.402191 96,277 L96,277 L92.1344315,277 L91.378285,242.22481 C89.3217397,242.299696 86.7702182,242.125314 84.149477,241.322581 C83.1489566,241.016122 82.0860855,240.589945 80.9994913,240.094237 L80.9994913,240.094237 L81,252.292 L85.1147643,248.579252 L87.5405977,251.291301 L81,257.211 L80.999884,270.512221 C81.2081021,271.344551 81.4180934,272.175624 81.6162378,272.961103 C74.1653398,269.387541 67.0707037,265.189507 60.4001835,260.434937 L60.6872911,260.194564 C67.2547804,254.747457 71.7766554,252.405566 73.3166157,252.584139 C73.9184587,252.653928 75.0645425,252.727837 76.0607135,253.244708 C76.4483813,253.445852 76.9844078,253.856369 77.6687931,254.476259 L77.6687931,254.476259 L77.9412219,246.767654 L77.9412826,238.573217 C75.5163893,237.288052 73.1508499,235.890979 71.2614857,234.92355 C64.6279507,231.52692 60.7895331,229.476789 60.5570766,229.035613 C60.0223943,228.020848 62.0756738,226.736978 64.8299516,225.799901 C67.5842294,224.862823 68.8843235,224.661896 72.7318567,224.404293 C74.8497386,224.262494 76.2270059,224.269325 77.9408735,224.333341 L77.9408735,224.333341 L77.942,214.083 L68.3934029,214.938168 C68.3934029,215.646056 67.9869488,216 67.1740406,216 L67.1740406,216 L55.8494378,216.000421 C55.8092616,216.10469 55.7610449,216.207548 55.7047876,216.308994 C54.7179567,218.088503 52.3796759,219.634152 48.5870301,222.61658 C44.7943843,225.599008 45.098176,225.13658 42.8523938,225.712193 C41.3552057,226.095936 39.8785391,226.095936 38.4223941,225.712193 C37.1722387,225.479508 36.0091211,225.138878 34.9330414,224.690302 C33.3189218,224.017437 33.3524578,224.167257 32.5438368,223.261649 C31.7352158,222.356041 31.7053355,222.100341 31.5070733,220.853418 C31.4451695,220.464089 31.3671409,219.672673 31.2729873,218.47917 L31.2729873,218.47917 L27.9543622,218.890899 C27.9655609,222.017433 27.9773138,225.228076 27.9896208,228.522827 C26.8245241,226.946138 25.6928988,225.342427 24.5937796,223.714957 C24.4910014,209.108758 24.399151,196.229232 24.3215674,185.073468 C24.220268,185.121892 24.1186613,185.170083 24.0167474,185.218041 L24.0167474,185.218041 L24.0153659,221.09004 L24.0419622,222.891776 C23.0827694,221.450168 22.148956,219.99022 21.24116,218.512571 L21,187.543277 L20.9994589,186.424164 C17.0760819,187.558499 13.3206558,186.850213 10.5720319,185.738476 C9.64570294,185.363803 8.58561138,183.209884 7.39175719,179.276719 L7.39175719,179.276719 L6.58333175,178.525709 L4.4042234,178.526833 C4.20521276,177.733391 4.01280853,176.937328 3.82707259,176.138705 L6.58333175,176.137075 L6.61021172,175.860832 C6.75249377,174.512708 7.01300892,173.660936 7.39175719,173.305519 C7.9977544,172.736851 9.05198715,173.097708 13.6501322,173.305519 C15.4244433,173.385708 18.1292009,173.471824 20.999014,173.580647 L20.999014,173.580647 L20.9984807,149.070965 C16.3328269,146.170848 14,144.34227 14,143.585229 C14,142.43015 15.454753,142.194152 19.5055453,141.531902 C20.5426018,141.362357 22.0771177,141.21767 23.8695911,141.092388 L23.8695911,141.092388 L24.0333467,140.912442 L24.0345539,140.885522 C24.002838,134.936341 23.9929553,131.644919 24.0049059,131.011256 C24.0828444,126.878672 26.1575408,124.089256 28.2407138,122.789642 C29.6294958,121.923233 35.6860057,119.993352 46.4102436,117 L46.4102436,117 L47,117 L46.9989041,97.7937072 C46.2519402,97.5057109 45.5279265,97.1695248 44.8304532,96.7888358 L44.8304532,96.7888358 L35.0901265,120 L33,120 L43.0971142,95.7137398 C38.2094404,92.294085 35,86.5319748 35,80 C35,69.5065898 43.2827321,61 53.5,61 Z M90.752,213.511 L81,213.945 L80.9975764,224.464998 C81.7070091,224.494845 82.4979576,224.525624 83.4002598,224.554801 C88.817891,224.729986 87.7185575,224.750378 90.1223715,224.325824 C90.3775913,224.280748 90.6670049,224.220507 90.9821066,224.148897 L90.9821066,224.148897 L90.752,213.511 Z M36.3692344,164.025877 C35.6279677,163.839728 32.770917,163.830471 27.7979156,163.995266 C27.8029854,167.073542 27.8095061,170.372044 27.817956,173.894387 C29.90806,174.017699 31.7181465,174.16361 32.8698328,174.340414 C36.6444347,174.919883 38,175.126381 38,176.137075 C38,176.810871 35.750864,178.45477 31.2525919,181.06877 C30.1647038,181.82497 29.0278145,182.544103 27.8406398,183.224763 C27.8483029,186.087504 27.8567524,189.069594 27.8659882,192.171032 L27.8659882,192.171032 L37.3817151,192.173837 L37.3817151,184 L38.9919657,184 L38.9919657,193.097117 L38.9997218,193.209918 C39.0037781,193.388413 38.9634816,193.519373 38.8788323,193.602798 C38.7772532,193.702907 38.6005701,193.74564 38.3487831,193.730995 L38.3487831,193.730995 L27.8714136,193.976789 C27.8924118,200.905377 27.9172207,208.412322 27.94584,216.497624 L27.94584,216.497624 L31.1059838,216.188571 C31.0396839,215.221052 30.9676932,214.111631 30.8900118,212.860309 L30.8900118,212.860309 L30,209.033504 C30,208.375441 30.2966706,207.904114 30.8900118,207.619522 C31.483353,207.33493 33.0956961,207.128423 35.727041,207 L35.727041,207 L38.8007952,207.619522 C39.1776367,207.812295 39.4565491,207.954591 39.6375326,208.04641 C43.7305711,210.122946 46.1329896,211.161214 46.8447882,211.161214 C47.6037975,211.161214 48.5147126,210.682402 49.5775334,209.724778 L49.5775334,209.724778 L50.5668682,210.549078 L50.5668682,212.170931 L54.3796878,212.170931 C54.6485888,212.445255 54.8840205,212.713704 55.0859828,212.976277 L55.0859828,212.976277 L55,212.386502 L69.5793064,212.386502 L77.942,211.845 L77.9412219,197.948539 L77.9262013,196.240776 C74.8576441,193.983813 73.1328052,192.634033 73.0319148,192.333562 C72.7224404,191.411888 74.7035972,190.646407 77.2409979,190.271965 C77.4616574,190.239402 77.6719063,190.209852 77.8741117,190.183266 L77.8741117,190.183266 L77.7138675,172.155201 C77.3169288,172.025575 76.9356694,171.885556 76.5720319,171.738476 C75.6457029,171.363803 74.5856114,169.209884 73.3917572,165.276719 L73.3917572,165.276719 L72.5833317,164.525709 L67.9922419,164.525301 C67.8188554,165.414892 67.6253247,166.353727 67.4133956,167.306011 C66.4441438,171.661255 66.9645569,170.625851 66.0439006,171.789735 C65.1232442,172.953619 65.2405643,172.892031 63.9126887,173.589108 C62.584813,174.286186 62.1997413,174.466581 60.3931589,174.756132 C58.5865765,175.045682 59.5424539,175.115052 57.7575073,174.756132 C55.9725608,174.397211 55.3816188,174.410957 54.5894342,173.589108 C53.7972495,172.767259 53.3641712,172.254564 52.8043847,170.785898 C52.2445981,169.317232 52.1946124,168.805355 52.1946124,167.306011 C52.1946124,166.422915 52.0029725,165.668835 52.0000341,164.700985 L52.0000341,164.700985 L51,164.78 L51,165.905175 C44.2227635,166.075289 40.1620574,166.016518 38.8178818,165.72886 C36.8016183,165.297375 37.5393214,164.319713 36.3692344,164.025877 Z M80.9988381,198.481051 L81,211.647 L90.698,211.02 L90.5763441,205.429603 C87.4291103,203.626496 83.9421806,200.610933 81.4352563,198.797018 C81.2880274,198.690489 81.1425498,198.585164 80.9988381,198.481051 L80.9988381,198.481051 Z M44.964168,181.033741 C45.5204576,180.734283 46.7310706,179.780407 47.7831834,180.04625 C48.4845919,180.223479 49.4375815,180.621772 50.6421524,181.241128 C51.9025457,181.449649 53.2181623,181.598067 54.5890022,181.686383 C56.6452621,181.818856 55.8826823,181.686383 56.9179194,181.686383 C57.6080775,181.686383 58.2871627,181.229618 58.955175,180.316089 C59.0149417,180.563457 59.0149417,180.802674 58.955175,181.033741 C58.9315606,181.125038 58.6194757,181.912769 58.3084088,183.000455 L58.3084088,183.000455 L64,183 L64,186 L63,186 L62.9995648,191.004688 C63.9708934,191.02038 64.923819,191.069193 65.617838,191.053096 C69.0581069,190.973302 71.0517492,191.233722 71.7366483,191.473775 C72.7647161,191.834107 73.1653319,192.357161 72.9384957,193.042937 C72.7701519,195.460208 72.6646795,197.158213 72.6220784,198.136955 C72.4495986,202.099608 72.42647,204.406049 72.3377642,205.082405 C72.1554091,206.472812 72.023152,207.069683 71.3552559,208.067891 C70.6873598,209.066099 70.5275144,209.227427 69.4311852,209.825655 C68.3348559,210.423883 67.8882902,210.764393 66.1739712,210.895134 C64.4596521,211.025875 64.2456029,211.17388 61.959816,210.395451 C59.6740291,209.617022 59.7551421,209.665719 58.9084846,208.495929 C58.0618272,207.326138 57.4687499,205.919843 57.0380472,204.539887 C56.2773278,202.102569 56.1048062,199.509904 55.8590614,198.558804 C55.2817411,196.324416 54.8002504,194.570071 55.0836034,194.011186 C55.3669564,193.452301 55.8793717,193.858569 56.4365468,193.601822 C56.8079968,193.430658 57.2448808,193.017926 57.7471986,192.363627 C57.9870058,192.264485 58.5179563,191.967868 59.3400501,191.473775 C59.9056951,191.133813 60.9106218,191.025632 61.9991815,191.004266 L61.9991815,191.004266 L62,186 L57.5245912,186.000245 C56.8207904,188.757918 56.0807263,191.723877 55.8865445,192.179883 C55.5189568,193.043105 54.461802,194.415828 53.4624995,194.92047 C52.7962979,195.256897 51.7912416,195.612736 50.4473308,195.987986 C48.9372061,196.058832 47.5976807,195.81634 46.4287546,195.260512 C44.6753655,194.426769 44.7583116,193.338739 44.3924503,192.179883 C44.026589,191.021027 43.9885837,189.798325 43.7482453,187.427176 C43.7006835,186.957938 43.6361317,186.47527 43.5647601,186.000268 L43.5647601,186.000268 L40,186 L40,183 L43.0729307,182.999437 C42.9982066,182.478521 42.9713965,182.116229 43.0380216,182.006982 C43.2423102,181.672003 43.6986395,181.904672 44.1141066,181.686383 C44.5295736,181.468093 44.4078784,181.333199 44.964168,181.033741 Z M55.0954038,198 L56,200.837234 C53.0622442,200.473184 50.8781829,200.387404 49.447816,200.579893 C47.3022657,200.868626 48.2361014,201.630262 46.3846218,201.919992 C45.1503021,202.113146 39.0220948,201.956568 28,201.450261 L28,201.450261 L28,199.201908 C33.4718239,199.417782 37.1488003,199.569321 39.030929,199.656526 C43.4975974,199.863478 45.786892,200.069787 46.3846218,199.656526 C47.8479163,198.644826 47.8479163,198 49.1258874,198 L49.1258874,198 L55.0954038,198 Z M89.8325693,171.304302 C89.5173623,171.451234 89.1992371,171.595959 88.8781935,171.738476 C86.1167914,172.964311 83.3723106,173.180746 80.9305795,172.876008 C80.9520335,174.309846 80.9751737,175.815385 81,177.392625 L81,177.392625 L80.9994992,190.009347 C81.8957839,190.037114 82.9176339,190.126361 84.3228738,190.271965 C86.7332175,190.521713 88.0273981,190.796264 90.2649583,191.273562 L90.2649583,191.273562 Z M24.006149,151.124002 C23.9511258,152.680617 23.9541981,154.600435 24.0153659,156.883458 L24.0153659,156.883458 L24.0159742,173.702916 C24.0917228,173.706232 24.1674023,173.709568 24.2425383,173.708987 C24.1818529,164.813481 24.1325556,157.304241 24.0953226,151.183211 C24.0794308,151.173074 24.0635474,151.162929 24.0476725,151.152778 L24.0476725,151.152778 Z M49.9415832,146.314663 L47.7154489,146.315096 L46.8478703,147.173393 C45.566661,151.668439 44.4290017,154.130061 43.4348926,154.558258 C40.0166583,156.03061 35.147488,156.883782 30.2282801,154.558258 C29.3957663,154.164693 28.5815384,153.756396 27.7856194,153.330479 C27.7870915,156.010686 27.7902066,158.940253 27.7964707,162.122692 C32.2432464,161.948941 35.1008343,161.959734 36.3692344,162.155069 C37.7118128,162.361829 38.4613566,162.59122 38.6178659,162.843244 C38.9951131,163.226516 39.3144784,163.55347 39.5759619,163.824104 C39.7881095,164.043676 42.3347412,164.129377 47.2151652,164.080878 C45.6685813,162.610957 44.721967,161.420303 44.3753222,160.508916 C43.750961,158.867367 44.0160894,158.141281 44.3753222,157.305556 C44.7345551,156.46983 45.1441755,156.031428 45.7344115,154.677847 C46.3246475,153.324267 45.8558464,153.586445 46.3713861,152.728009 C46.8869258,151.869573 47.123729,151.397447 48.2192429,150.540302 C49.3147569,149.683156 49.3581318,149.771548 50.6072825,149.413784 C50.6215179,149.409707 50.6355948,149.405664 50.6464559,149.401474 C50.3727237,148.254363 50.1377661,147.225426 49.9415832,146.314663 L49.9415832,146.314663 Z M58.2809622,121.196967 L58.2809622,121.196967 L59.45547,138.423475 L60.9440432,158.251635 C63.945431,158.422824 65.6453834,158.508419 66.0439006,158.508419 C66.8850343,158.508419 69.0321984,158.140022 68.9996337,158.508419 C68.9810037,158.719176 68.7817583,160.142711 68.433171,162.137875 L68.433171,162.137875 L72.5833317,162.137075 L72.6102117,161.860832 C72.7524938,160.512708 73.0130089,159.660936 73.3917572,159.305519 C73.8949736,158.8333 74.7072728,159.00204 77.6012443,159.191855 L77.6012443,159.191855 L77.5416796,152.406814 L77.4846183,151.90936 C77.0800503,148.468346 76.5675714,145.891773 75.9471814,144.17964 C75.297249,142.385977 73.7453196,140.172671 71.2913934,137.539723 C64.7097176,129.925871 61.059805,125.656265 60.3416554,124.730903 C59.5244508,123.677906 58.9505233,122.561136 58.2810385,121.138151 L58.2810385,121.138151 Z M76.4032563,123.974305 C76.6669731,124.579315 76.9399746,125.271488 77.2222607,126.050825 C78.3342682,129.120858 79.0978265,131.06341 79.4793255,132.518475 C79.8608245,133.973541 80.2700322,136.528664 80.5399625,140.628058 C80.7161233,143.303389 80.8667862,149.547769 80.9919512,159.361198 L80.9919512,159.361198 L81.1224162,159.366229 C83.4189492,159.454581 86.5331791,159.554035 89.5788278,159.684022 L89.5788278,159.684022 L89.0020827,133.231283 C88.5672852,130.853731 88.0565918,129.25404 87.4700024,128.432208 C86.883413,127.610377 85.6431575,126.75693 83.749236,125.871868 C81.2279813,125.226517 78.9072691,124.627337 76.7870992,124.074327 L76.7870992,124.074327 Z M57.9971291,146.314993 L52.353,146.315 L52.8212188,149.002841 C52.9233645,149.005268 53.034933,149.009224 53.1581608,149.014613 C54.4308409,149.070263 55.3941925,148.96591 57.1941001,149.701802 C57.6635438,149.893734 58.0360771,150.100841 58.3117,150.323123 L58.3117,150.323123 L58.2809622,149.828577 C58.1828848,148.618392 58.0882737,147.447197 57.9971291,146.314993 L57.9971291,146.314993 Z M52.891,118.128 L52.4781384,122.408282 L51.4267061,136.263931 L51.4267061,141.040873 L51.874,143.585 L57.7780252,143.584911 C57.2856046,137.429199 56.9084106,132.569549 56.6464432,129.005962 C56.5835472,128.150375 56.521055,127.293331 56.4589668,126.434828 C55.5995621,114.551718 56.2355198,123.161847 56.106594,119.76328 C56.0876614,119.264206 56.0728992,118.832735 56.0623073,118.468867 L56.0623073,118.468867 L52.891,118.128 Z M50.0544613,123.70567 C46.821491,127.219513 33.470022,136.744081 30.4274538,139.432933 C29.8979444,139.900884 29.4040903,140.358927 28.946952,140.806148 C33.1465643,140.609694 37.5539534,140.473223 40.1315654,140.349164 C45.0661601,140.111666 46.1975319,139.699258 46.8478703,140.349164 C47.2814293,140.782435 47.5706222,141.861124 47.7154489,143.585229 L47.7154489,143.585229 L49.4090711,143.584231 C49.2677791,142.731321 49.1971331,142.09372 49.1971331,141.671427 C49.1971331,139.93475 48.7535836,143.611089 49.1971331,135.142271 C49.415017,130.982149 49.6933335,127.234576 50.0320826,123.89955 L50.0320826,123.89955 Z M60.6166556,119.522869 C60.8017395,119.95049 61.0597689,120.407538 61.3907437,120.894012 C63.1960256,123.547456 77.3985167,138.223383 78.7393404,142.235673 L78.7393404,142.235673 L78.8663768,142.616846 L78.8528524,141.536417 L78.8231449,141.140946 C78.5576055,137.629954 78.3414346,135.421644 78.174632,134.516019 C78.0016515,133.576851 77.5226522,132.118027 76.7376341,130.139546 L76.7376341,130.139546 L73.5003867,123.211579 C66.4909743,121.358643 62.2061855,120.132988 60.6460203,119.534614 L60.6460203,119.534614 Z M47.1488549,121.19501 C43.1965659,122.502591 33.9568419,124.641582 31.2611204,125.903124 C28.2407138,127.316611 28.2052986,127.904648 27.8869515,131.826888 C27.8517521,132.260567 27.8256344,134.072631 27.8081084,137.265481 C28.4462009,136.722783 29.0856151,136.215594 29.7263511,135.743913 C40.0583248,127.584981 45.5744726,123.19762 46.2747944,122.581829 C46.6482993,122.253407 46.9284883,121.824407 47.1153613,121.294829 L47.1153613,121.294829 Z M62.5800895,96.5578531 C61.7730666,97.0256624 60.9284226,97.4330383 60.0519813,97.7739997 L60.0519813,97.7739997 L60.8282023,115.168649 C64.6638978,116.28124 68.0802588,117.27805 71.0772853,118.159077 L71.0772853,118.159077 Z" id="path-1"></path>
    </defs>
    <g id="Page-1" stroke="none" stroke-width="1" fill="none" fill-rule="evenodd">
        <g id="Group-2" transform="translate(4.000000, 4.000000)">
            <g id="wlg-data-beers-logo">
                <path d="M0.09974,143.50394 L0.09974,143.50394 C0.09974,64.25325 64.34512,0.00788 143.5958,0.00788 L143.5958,0.00788 C181.653326,0.00788 218.152105,15.126174 245.06284,42.036902 C271.973576,68.947638 287.091862,105.446417 287.091862,143.503942 L287.091862,143.503942 C287.091862,222.754642 222.846502,287.000002 143.595802,287.000002 L143.595802,287.000002 C64.345122,287.000002 0.09974,222.754642 0.09974,143.503942 L0.09974,143.50394 Z" id="Path" stroke="#000000" stroke-width="8" stroke-linejoin="round"></path>
                <g id="Group" transform="translate(112.000000, 45.000000)" fill="#000000" fill-rule="nonzero">
                    <path d="M1.734375,112.76286 L1.734375,60.91911 L13,60.91911 C16.84375,60.91911 19.885417,61.507652 22.125,62.684735 C24.364583,63.861818 25.963542,65.622235 26.921875,67.965985 C27.880208,70.309735 28.359375,73.23161 28.359375,76.73161 L28.359375,95.809735 C28.359375,99.476402 27.880208,102.570152 26.921875,105.090985 C25.963542,107.601402 24.40625,109.507652 22.25,110.809735 C20.09375,112.111818 17.203125,112.76286 13.578125,112.76286 L1.734375,112.76286 Z M8.96875,107.57536 L13.0625,107.57536 C15.708333,107.57536 17.583333,107.064943 18.6875,106.04411 C19.802083,105.023277 20.473958,103.533693 20.703125,101.57536 C20.942708,99.60661 21.0625,97.236818 21.0625,94.465985 L21.0625,77.622235 C21.0625,74.934735 20.890625,72.76286 20.546875,71.10661 C20.213542,69.439943 19.46875,68.221193 18.3125,67.45036 C17.15625,66.679527 15.34375,66.29411 12.875,66.29411 L8.96875,66.29411 L8.96875,107.57536 Z M32.64981,112.76286 L43.64981,60.91911 L50.634185,60.91911 L61.696685,112.76286 L54.852935,112.76286 L52.49356,99.70036 L41.93106,99.70036 L39.43106,112.76286 L32.64981,112.76286 Z M42.884185,94.528485 L51.52481,94.528485 L47.18106,71.16911 L42.884185,94.528485 Z M70.605376,112.76286 L70.605376,66.29411 L61.824126,66.29411 L61.824126,60.91911 L86.339751,60.91911 L86.339751,66.29411 L77.824126,66.29411 L77.824126,112.76286 L70.605376,112.76286 Z M88.393706,112.76286 L99.393706,60.91911 L106.378081,60.91911 L117.440581,112.76286 L110.596831,112.76286 L108.237456,99.70036 L97.674956,99.70036 L95.174956,112.76286 L88.393706,112.76286 Z M98.628081,94.528485 L107.268706,94.528485 L102.924956,71.16911 L98.628081,94.528485 Z" id="Shape"></path>
                    <path d="M1.734375,173.17233 L1.734375,121.32858 L13.640625,121.32858 C15.984375,121.32858 18.020833,121.588997 19.75,122.10983 C21.479167,122.620247 22.916667,123.406705 24.0625,124.469205 C25.21875,125.531705 26.072917,126.885872 26.625,128.531705 C27.1875,130.177538 27.46875,132.10983 27.46875,134.32858 C27.46875,136.463997 27.197917,138.312955 26.65625,139.875455 C26.125,141.427538 25.3125,142.651497 24.21875,143.54733 C23.135417,144.443163 21.744792,145.01608 20.046875,145.26608 C22.130208,145.73483 23.8125,146.536913 25.09375,147.67233 C26.375,148.79733 27.322917,150.245247 27.9375,152.01608 C28.5625,153.786913 28.875,155.911913 28.875,158.39108 C28.875,160.60983 28.614583,162.635872 28.09375,164.469205 C27.583333,166.302538 26.786458,167.85983 25.703125,169.14108 C24.619792,170.42233 23.234375,171.417122 21.546875,172.125455 C19.859375,172.823372 17.864583,173.17233 15.5625,173.17233 L1.734375,173.17233 Z M8.96875,167.98483 L13.828125,167.98483 C17.067708,167.98483 19.229167,167.229622 20.3125,165.719205 C21.40625,164.198372 21.953125,161.755663 21.953125,158.39108 C21.953125,156.213997 21.666667,154.39108 21.09375,152.92233 C20.520833,151.443163 19.604167,150.333788 18.34375,149.594205 C17.083333,148.844205 15.385417,148.469205 13.25,148.469205 L8.96875,148.469205 L8.96875,167.98483 Z M8.96875,142.969205 L13.25,142.969205 C15.302083,142.969205 16.901042,142.682747 18.046875,142.10983 C19.203125,141.526497 20.015625,140.594205 20.484375,139.312955 C20.953125,138.031705 21.1875,136.370247 21.1875,134.32858 C21.1875,131.932747 20.822917,130.20358 20.09375,129.14108 C19.375,128.07858 18.244792,127.406705 16.703125,127.125455 C15.171875,126.844205 13.166667,126.70358 10.6875,126.70358 L8.96875,126.70358 L8.96875,142.969205 Z M35.270325,173.17233 L35.270325,121.32858 L55.364075,121.32858 L55.364075,126.70358 L42.5047,126.70358 L42.5047,143.85983 L52.9422,143.85983 L52.9422,148.98483 L42.5047,148.98483 L42.5047,167.98483 L55.489075,167.98483 L55.489075,173.17233 L35.270325,173.17233 Z M61.318283,173.17233 L61.318283,121.32858 L81.412033,121.32858 L81.412033,126.70358 L68.552658,126.70358 L68.552658,143.85983 L78.990158,143.85983 L78.990158,148.98483 L68.552658,148.98483 L68.552658,167.98483 L81.537033,167.98483 L81.537033,173.17233 L61.318283,173.17233 Z M87.366241,173.17233 L87.366241,121.32858 L97.803741,121.32858 C101.251658,121.32858 104.105824,121.786913 106.366241,122.70358 C108.637074,123.620247 110.314158,125.094205 111.397491,127.125455 C112.491241,129.146288 113.038116,131.802538 113.038116,135.094205 C113.038116,137.094205 112.824574,138.917122 112.397491,140.562955 C111.970408,142.208788 111.282908,143.599413 110.334991,144.73483 C109.397491,145.85983 108.163116,146.677538 106.631866,147.187955 L113.991241,173.17233 L107.022491,173.17233 L100.225616,148.85983 L94.600616,148.85983 L94.600616,173.17233 L87.366241,173.17233 Z M94.600616,143.67233 L97.350616,143.67233 C99.402699,143.67233 101.064158,143.417122 102.334991,142.906705 C103.616241,142.385872 104.553741,141.510872 105.147491,140.281705 C105.751658,139.042122 106.053741,137.312955 106.053741,135.094205 C106.053741,132.062955 105.496449,129.875455 104.381866,128.531705 C103.277699,127.187955 101.084991,126.51608 97.803741,126.51608 L94.600616,126.51608 L94.600616,143.67233 Z M132.800933,173.750455 C129.821766,173.750455 127.337391,173.10983 125.347808,171.82858 C123.368641,170.54733 121.863433,168.776497 120.832183,166.51608 C119.81135,164.255663 119.2176,161.630663 119.050933,158.64108 L125.441558,156.92233 C125.576975,158.755663 125.868641,160.526497 126.316558,162.23483 C126.764475,163.932747 127.49885,165.32858 128.519683,166.42233 C129.540516,167.505663 130.9676,168.04733 132.800933,168.04733 C134.68635,168.04733 136.108225,167.526497 137.066558,166.48483 C138.024891,165.443163 138.504058,163.937955 138.504058,161.969205 C138.504058,159.625455 137.9676,157.740038 136.894683,156.312955 C135.832183,154.875455 134.488433,153.432747 132.863433,151.98483 L124.160308,144.312955 C122.462391,142.812955 121.207183,141.177538 120.394683,139.406705 C119.582183,137.635872 119.175933,135.45358 119.175933,132.85983 C119.175933,129.057747 120.264475,126.115038 122.441558,124.031705 C124.618641,121.937955 127.582183,120.89108 131.332183,120.89108 C133.384266,120.89108 135.18635,121.156705 136.738433,121.687955 C138.300933,122.219205 139.603016,123.042122 140.644683,124.156705 C141.68635,125.260872 142.514475,126.656705 143.129058,128.344205 C143.754058,130.031705 144.175933,132.005663 144.394683,134.26608 L138.254058,135.92233 C138.118641,134.213997 137.858225,132.646288 137.472808,131.219205 C137.097808,129.792122 136.425933,128.64108 135.457183,127.76608 C134.49885,126.89108 133.12385,126.45358 131.332183,126.45358 C129.540516,126.45358 128.144683,126.932747 127.144683,127.89108 C126.144683,128.849413 125.644683,130.26608 125.644683,132.14108 C125.644683,133.724413 125.910308,135.031705 126.441558,136.062955 C126.972808,137.083788 127.837391,138.125455 129.035308,139.187955 L137.800933,146.875455 C139.759266,148.573372 141.483225,150.60983 142.972808,152.98483 C144.472808,155.349413 145.222808,158.151497 145.222808,161.39108 C145.222808,163.95358 144.68635,166.161913 143.613433,168.01608 C142.550933,169.870247 141.0926,171.292122 139.238433,172.281705 C137.384266,173.260872 135.238433,173.750455 132.800933,173.750455 Z" id="Shape"></path>
                    <path d="M8.453125,52.28125 L0,0.4375 L6.015625,0.4375 L11.59375,37.6875 L18.5625,0.640625 L23.6875,0.640625 L30.734375,37.875 L36.171875,0.4375 L42.0625,0.4375 L33.734375,52.28125 L28.484375,52.28125 L21.25,13.875 L13.953125,52.28125 L8.453125,52.28125 Z M48.390289,52.28125 L48.390289,0.4375 L55.624664,0.4375 L55.624664,47.09375 L68.874664,47.09375 L68.874664,52.28125 L48.390289,52.28125 Z M85.773619,52.921875 C82.523619,52.921875 79.929869,52.229167 77.992369,50.84375 C76.054869,49.458333 74.648619,47.442708 73.773619,44.796875 C72.898619,42.151042 72.461119,38.96875 72.461119,35.25 L72.461119,17.90625 C72.461119,14.1145833 72.851744,10.8854167 73.632994,8.21875 C74.424661,5.5520833 75.830911,3.515625 77.851744,2.109375 C79.882994,0.703125 82.711119,3.55271368e-15 86.336119,3.55271368e-15 C89.586119,3.55271368e-15 92.200702,0.5416667 94.179869,1.625 C96.169452,2.7083333 97.612161,4.375 98.507994,6.625 C99.403827,8.8645833 99.851744,11.6875 99.851744,15.09375 L99.851744,17.015625 L93.070494,17.015625 L93.070494,15.421875 C93.070494,13.1614583 92.919452,11.3177083 92.617369,9.890625 C92.315286,8.453125 91.705911,7.3854167 90.789244,6.6875 C89.872577,5.9791667 88.435077,5.625 86.476744,5.625 C84.341327,5.625 82.794452,6.1145833 81.836119,7.09375 C80.877786,8.0729167 80.278827,9.40625 80.039244,11.09375 C79.799661,12.78125 79.679869,14.6927083 79.679869,16.828125 L79.679869,36.03125 C79.679869,38.5 79.862161,40.567708 80.226744,42.234375 C80.591327,43.901042 81.284036,45.140625 82.304869,45.953125 C83.336119,46.755208 84.789244,47.15625 86.664244,47.15625 C88.539244,47.15625 89.987161,46.708333 91.007994,45.8125 C92.039244,44.916667 92.742369,43.59375 93.117369,41.84375 C93.502786,40.09375 93.695494,37.921875 93.695494,35.328125 L93.695494,31.734375 L87.117369,31.734375 L87.117369,26.625 L100.226744,26.625 L100.226744,52.28125 L95.679869,52.28125 L94.976744,46.328125 C94.299661,48.244792 93.231952,49.822917 91.773619,51.0625 C90.325702,52.302083 88.325702,52.921875 85.773619,52.921875 Z" id="Shape"></path>
                </g>
            </g>
            <mask id="mask-2" fill="white">
                <use xlink:href="#path-1"></use>
            </mask>
            <use id="Combined-Shape" fill="#000000" xlink:href="#path-1"></use>
        </g>
    </g>
</svg>